<svg xmlns="http://www.w3.org/2000/svg" xmlns:xlink="http://www.w3.org/1999/xlink" width="219.545" height="69" viewBox="0 0 219.545 69">
  <defs>
    <linearGradient id="linear-gradient" x1="0.034" y1="0.035" x2="0.961" y2="0.96" gradientUnits="objectBoundingBox">
      <stop offset="0" stop-color="#0f3ad9"/>
      <stop offset="1" stop-color="#1c93fc"/>
    </linearGradient>
  </defs>
  <g id="Group_7" data-name="Group 7" transform="translate(0 0)">
    <g id="Group_6" data-name="Group 6" transform="translate(0 0)">
      <g id="Group_5" data-name="Group 5" transform="translate(0 0)">
        <path id="Path_1" data-name="Path 1" d="M35.593.019A34.5,34.5,0,1,0,52.766,63.7l-.523-.524a22.487,22.487,0,0,0-16.918-6.433q-.9.036-1.823,0A22.262,22.262,0,1,1,56.545,32.529a22.77,22.77,0,0,1,.064,2.96,22.405,22.405,0,0,0,6.417,16.86l.53.531A34.522,34.522,0,0,0,35.593.019ZM63.56,63.478l-.22.22a7.465,7.465,0,0,1-10.575,0h0a34.591,34.591,0,0,0,10.79-10.82l0,0A7.5,7.5,0,0,1,63.56,63.478Z" transform="translate(0 0)" fill="url(#linear-gradient)"/>
        <g id="Group_4" data-name="Group 4" transform="translate(85.205 7.099)">
          <g id="Group_2" data-name="Group 2" transform="translate(0 47.084)">
            <g id="Group_1" data-name="Group 1">
              <path id="Path_2" data-name="Path 2" d="M547.7,362.666a2.075,2.075,0,0,0-1.525-.551c-.725,0-1.125.226-1.125.614s.362.626,1.15.677c1.162.075,2.637.338,2.637,1.979,0,1.09-.887,2.029-2.65,2.029a3.6,3.6,0,0,1-2.85-1.1l.75-1.09a3.378,3.378,0,0,0,2.125.865c.575.013,1.112-.288,1.112-.739,0-.426-.35-.6-1.225-.652-1.162-.088-2.55-.513-2.55-1.917,0-1.428,1.475-1.929,2.6-1.929a3.3,3.3,0,0,1,2.4.814Z" transform="translate(-543.337 -358.445)" fill="#1274fc"/>
              <path id="Path_3" data-name="Path 3" d="M588.729,367.537v-3.307c0-.814-.425-1.553-1.262-1.553a1.409,1.409,0,0,0-1.313,1.553v3.307h-1.525v-6.188h1.412l.113.752a1.784,1.784,0,0,1,1.625-.852A1.846,1.846,0,0,1,589.6,362.4a2.23,2.23,0,0,1,2.062-1.127c1.75,0,2.612,1.077,2.612,2.931v3.332h-1.525V364.2c0-.814-.338-1.5-1.163-1.5a1.4,1.4,0,0,0-1.338,1.528v3.307Z" transform="translate(-578.154 -358.78)" fill="#1274fc"/>
              <path id="Path_4" data-name="Path 4" d="M659.124,361.159h1.462v6.176h-1.438l-.075-.9a2.34,2.34,0,0,1-2,1.09,3.258,3.258,0,0,1,.037-6.514,2.26,2.26,0,0,1,1.963,1Zm-3.7,3.081a1.767,1.767,0,0,0,1.825,1.879c2.4,0,2.4-3.746,0-3.746A1.757,1.757,0,0,0,655.424,364.24Z" transform="translate(-636.561 -358.578)" fill="#1274fc"/>
              <path id="Path_5" data-name="Path 5" d="M706.167,361.091l.112.714a1.815,1.815,0,0,1,1.738-.877,2.336,2.336,0,0,1,1.587.589l-.687,1.328a1.521,1.521,0,0,0-1.1-.4,1.424,1.424,0,0,0-1.538,1.566v3.257h-1.525v-6.176Z" transform="translate(-679.441 -358.51)" fill="#1274fc"/>
              <path id="Path_6" data-name="Path 6" d="M741.146,350.864v1.754h1.7v1.316h-1.712V356.6a.766.766,0,0,0,.8.877,1.736,1.736,0,0,0,.737-.188l.425,1.3a3.4,3.4,0,0,1-1.262.263,1.994,1.994,0,0,1-2.213-2.255v-2.668h-1.15v-1.316h1.15v-1.591Z" transform="translate(-707.87 -350.025)" fill="#1274fc"/>
              <path id="Path_7" data-name="Path 7" d="M792.884,357.974l1.125.852-.687.877a2.635,2.635,0,0,1,.65,1.829,2.452,2.452,0,0,1-1.3,2.3,2.079,2.079,0,0,1,1.275,2.042,2.779,2.779,0,0,1-3.087,2.756,2.832,2.832,0,0,1-3.125-2.756h1.513a1.455,1.455,0,0,0,1.612,1.328c.875,0,1.563-.476,1.563-1.328s-.8-1.24-1.562-1.24a2.886,2.886,0,0,1-3.125-3.107,3.009,3.009,0,0,1,3.125-3.132,2.452,2.452,0,0,1,1.412.351Zm-3.637,3.558a1.61,1.61,0,1,0,3.212,0,1.611,1.611,0,1,0-3.212,0Z" transform="translate(-749.408 -356.02)" fill="#1274fc"/>
              <path id="Path_8" data-name="Path 8" d="M835.239,345.512v8.756h-1.512v-8.756Z" transform="translate(-788.189 -345.512)" fill="#1274fc"/>
              <path id="Path_9" data-name="Path 9" d="M856.48,364.387a3.206,3.206,0,1,1-3.225-3.22A3.119,3.119,0,0,1,856.48,364.387Zm-4.888,0a1.68,1.68,0,1,0,3.35,0,1.743,1.743,0,0,0-1.675-1.829A1.7,1.7,0,0,0,851.592,364.387Z" transform="translate(-801.966 -358.712)" fill="#1274fc"/>
              <path id="Path_10" data-name="Path 10" d="M899.181,345.512v3.42a2.549,2.549,0,0,1,2.025-.99,2.954,2.954,0,0,1,3.138,3.232,3.028,3.028,0,0,1-3.175,3.232,2.24,2.24,0,0,1-1.987-.99l-.1.852h-1.425v-8.756Zm.1,5.662a1.769,1.769,0,1,0,3.538,0,1.7,1.7,0,0,0-1.75-1.8A1.761,1.761,0,0,0,899.281,351.174Z" transform="translate(-842.092 -345.512)" fill="#1274fc"/>
              <path id="Path_11" data-name="Path 11" d="M950.549,361.159h1.462v6.176h-1.438l-.075-.9a2.341,2.341,0,0,1-2,1.09,3.258,3.258,0,0,1,.038-6.514,2.26,2.26,0,0,1,1.963,1Zm-3.7,3.081a1.767,1.767,0,0,0,1.825,1.879c2.4,0,2.4-3.746,0-3.746A1.757,1.757,0,0,0,946.849,364.24Z" transform="translate(-882.285 -358.578)" fill="#1274fc"/>
              <path id="Path_12" data-name="Path 12" d="M997.692,345.512v8.756h-1.513v-8.756Z" transform="translate(-925.165 -345.512)" fill="#1274fc"/>
              <path id="Path_13" data-name="Path 13" d="M1030.456,369.983v-8.756h1.425l.1.852a2.445,2.445,0,0,1,2-.99,3.086,3.086,0,0,1,3.163,3.232,3.011,3.011,0,0,1-3.113,3.232,2.479,2.479,0,0,1-2.05-.877v3.307Zm5.162-5.662a1.75,1.75,0,1,0-3.5,0,1.75,1.75,0,1,0,3.5,0Z" transform="translate(-954.067 -358.646)" fill="#1274fc"/>
              <path id="Path_14" data-name="Path 14" d="M1083.35,361.159h1.462v6.176h-1.438l-.075-.9a2.34,2.34,0,0,1-2,1.09,3.258,3.258,0,0,1,.037-6.514,2.26,2.26,0,0,1,1.963,1Zm-3.7,3.081a1.767,1.767,0,0,0,1.825,1.879c2.4,0,2.4-3.746,0-3.746A1.757,1.757,0,0,0,1079.65,364.24Z" transform="translate(-994.261 -358.578)" fill="#1274fc"/>
              <path id="Path_15" data-name="Path 15" d="M1130.629,361.968l-3.763,8.756h-1.675l1.15-2.681-2.463-6.076h1.775l.938,2.668.588,1.741.637-1.7,1.125-2.706Z" transform="translate(-1032.84 -359.387)" fill="#1274fc"/>
              <path id="Path_16" data-name="Path 16" d="M1176.125,367.537v-3.307c0-.814-.425-1.553-1.262-1.553a1.409,1.409,0,0,0-1.313,1.553v3.307h-1.525v-6.188h1.412l.112.752a1.784,1.784,0,0,1,1.625-.852A1.846,1.846,0,0,1,1177,362.4a2.23,2.23,0,0,1,2.063-1.127c1.75,0,2.612,1.077,2.612,2.931v3.332h-1.525V364.2c0-.814-.338-1.5-1.163-1.5a1.4,1.4,0,0,0-1.338,1.528v3.307Z" transform="translate(-1073.435 -358.78)" fill="#1274fc"/>
              <path id="Path_17" data-name="Path 17" d="M1243.268,364.591a1.641,1.641,0,0,0,1.837,1.316,2.541,2.541,0,0,0,1.65-.576l.975.965a3.78,3.78,0,0,1-2.65,1,3.264,3.264,0,1,1-.112-6.526c2.063,0,3.35,1.278,3.112,3.821Zm3.35-1.266a1.412,1.412,0,0,0-1.6-1.2,1.66,1.66,0,0,0-1.725,1.2Z" transform="translate(-1132.178 -358.377)" fill="#1274fc"/>
              <path id="Path_18" data-name="Path 18" d="M1294.255,367.605v-3.232a1.472,1.472,0,0,0-1.487-1.654,1.623,1.623,0,0,0-1.575,1.729v3.157h-1.512v-6.188h1.363l.1.839a2.777,2.777,0,0,1,2.025-.927c1.45,0,2.613,1.09,2.613,3.032v3.244Z" transform="translate(-1172.64 -358.849)" fill="#1274fc"/>
              <path id="Path_19" data-name="Path 19" d="M1334.6,350.864v1.754h1.7v1.316h-1.713V356.6a.766.766,0,0,0,.8.877,1.738,1.738,0,0,0,.738-.188l.425,1.3a3.394,3.394,0,0,1-1.262.263,1.994,1.994,0,0,1-2.213-2.255v-2.668h-1.15v-1.316h1.15v-1.591Z" transform="translate(-1208.262 -350.025)" fill="#1274fc"/>
              <path id="Path_20" data-name="Path 20" d="M1369.29,362.666a2.074,2.074,0,0,0-1.525-.551c-.725,0-1.125.226-1.125.614s.363.626,1.15.677c1.162.075,2.637.338,2.637,1.979,0,1.09-.887,2.029-2.65,2.029a3.6,3.6,0,0,1-2.85-1.1l.75-1.09a3.379,3.379,0,0,0,2.125.865c.575.013,1.112-.288,1.112-.739,0-.426-.35-.6-1.225-.652-1.162-.088-2.55-.513-2.55-1.917,0-1.428,1.475-1.929,2.6-1.929a3.3,3.3,0,0,1,2.4.814Z" transform="translate(-1236.088 -358.445)" fill="#1274fc"/>
            </g>
          </g>
          <g id="Group_3" data-name="Group 3">
            <path id="Path_21" data-name="Path 21" d="M543.337,49.912V89.054h7.78V49.912Z" transform="translate(-543.337 -49.184)" fill="#01051e"/>
            <path id="Path_22" data-name="Path 22" d="M711.994,55.139a18.51,18.51,0,0,0-7.309-7.258,21.436,21.436,0,0,0-10.613-2.613,22.035,22.035,0,0,0-8.286,1.536,21.119,21.119,0,0,0-2.815,1.383,21.877,21.877,0,0,1,2.717-1.31A22.215,22.215,0,0,1,694,45.348a21.7,21.7,0,0,1,10.65,2.6,18.547,18.547,0,0,1,7.334,7.215,20.2,20.2,0,0,1,1.435,3.139A18.884,18.884,0,0,0,711.994,55.139ZM681.682,65.567a12.647,12.647,0,0,1,3.487-9.241,11.414,11.414,0,0,1,3.419-2.436,11.333,11.333,0,0,0-3.517,2.46,12.525,12.525,0,0,0-3.5,9.192,12.525,12.525,0,0,0,3.5,9.192,11.515,11.515,0,0,0,1,.906c-.312-.257-.611-.539-.9-.832A12.647,12.647,0,0,1,681.682,65.567Z" transform="translate(-659.894 -45.268)" fill="#01051e"/>
            <path id="Path_23" data-name="Path 23" d="M667.744,78.265l-.165-.22a19.37,19.37,0,0,0,3.89-10.4c.018-.275.037-.551.043-.832s.018-.545.018-.82a22.108,22.108,0,0,0-.831-6.15c-.1-.373-.226-.747-.354-1.114a20.2,20.2,0,0,0-1.435-3.139,18.547,18.547,0,0,0-7.334-7.215,21.7,21.7,0,0,0-10.65-2.6,22.215,22.215,0,0,0-8.317,1.53,21.877,21.877,0,0,0-2.717,1.31c-.006-.006-.006,0-.012.006-.171.1-.342.2-.507.306a17.92,17.92,0,0,0-3.169,2.515,19.053,19.053,0,0,0-4.2,6.444A22.381,22.381,0,0,0,632,74.1a19.057,19.057,0,0,0,4.2,6.444c.11.11.22.22.336.324s.226.214.342.312a.013.013,0,0,0,.012.012,19.741,19.741,0,0,0,5.716,3.439,22.336,22.336,0,0,0,8.317,1.53A20.481,20.481,0,0,0,662.1,83.05l.183.239,1.636,2.154H673.1Zm-7.834-3.029a11.9,11.9,0,0,1-8.915,3.568,12.028,12.028,0,0,1-7.865-2.625.756.756,0,0,1-.134-.11,11.506,11.506,0,0,1-1-.906,12.525,12.525,0,0,1-3.5-9.192,12.525,12.525,0,0,1,3.5-9.192,11.334,11.334,0,0,1,3.517-2.46c.159-.073.311-.141.47-.2a13.09,13.09,0,0,1,5.013-.93,11.924,11.924,0,0,1,8.915,3.568,12.685,12.685,0,0,1,3.468,9.241A12.684,12.684,0,0,1,659.91,75.235Z" transform="translate(-616.817 -45.695)" fill="#01051e"/>
            <path id="Path_24" data-name="Path 24" d="M957.247,63.413H939.282V69.93h9.929a10.2,10.2,0,0,1-3.572,6.432,11.81,11.81,0,0,1-7.529,2.209,11.66,11.66,0,0,1-8.708-3.58,12.92,12.92,0,0,1-3.487-9.424,12.821,12.821,0,0,1,3.475-9.3,12.817,12.817,0,0,1,17.971.171c.11.11.214.226.318.343l5.606-5.508q-5.523-6.013-14.814-6.009a22.654,22.654,0,0,0-5.752.71.217.217,0,0,0-.061.012,19.894,19.894,0,0,0-2.461.8,19.519,19.519,0,0,0-6.54,4.18,18.854,18.854,0,0,0-4.256,6.444,21.355,21.355,0,0,0-1.545,8.152,22.057,22.057,0,0,0,1.069,6.946,17.976,17.976,0,0,0,3,5.667,20.476,20.476,0,0,0,4.476,4.149,18.774,18.774,0,0,0,1.673,1.022,19.4,19.4,0,0,0,3.92,1.61,22.452,22.452,0,0,0,6.277.881,19.047,19.047,0,0,0,9.819-2.558,17.839,17.839,0,0,0,6.809-7.191c.006-.012.012-.018.012-.031.146-.288.293-.587.44-.887a18.583,18.583,0,0,0,.763-1.879c.116-.324.22-.655.318-.985.073-.251.146-.5.2-.753.055-.22.11-.44.159-.667a23.748,23.748,0,0,0,.562-5.269A20.485,20.485,0,0,0,957.247,63.413Z" transform="translate(-859.124 -45.268)" fill="#01051e"/>
            <path id="Path_25" data-name="Path 25" d="M1233.81,53.235q-3.691-3.323-10.588-3.323H1207.29V89.054h7.786V74.74h8.2q6.842,0,10.534-3.329a10.632,10.632,0,0,0,3.12-4.908,14.164,14.164,0,0,0,.58-4.149A11.644,11.644,0,0,0,1233.81,53.235ZM1223.081,67.61h-8.005V57.1h8.005q6.448,0,6.448,5.257T1223.081,67.61Z" transform="translate(-1103.17 -49.184)" fill="#01051e"/>
          </g>
        </g>
      </g>
    </g>
  </g>
</svg>
